<svg width="138" height="85" viewBox="0 0 138 85" fill="none" xmlns="http://www.w3.org/2000/svg">
<path d="M59.4004 23.2945C55.1448 20.1794 51.109 17.256 47.1199 14.2704C46.3541 13.6955 45.8807 13.8379 45.1796 14.3532C34.4486 22.2302 23.6996 30.0839 12.9376 37.9221C12.1382 38.5047 11.732 39.1184 11.7372 40.1593C11.7734 50.5377 11.7786 60.916 11.7346 71.2944C11.7294 72.5658 12.0683 72.9982 13.3774 72.9723C17.3122 72.8947 21.2523 73.0138 25.1845 72.9102C26.7031 72.8688 27.1222 73.3349 27.0498 74.8186C26.9282 77.3873 26.9644 79.9689 27.0394 82.5428C27.0731 83.7314 26.8661 84.2596 25.4795 84.2466C17.6822 84.1767 9.8849 84.1793 2.09022 84.2466C0.711339 84.2596 0.5199 83.7391 0.522487 82.5454C0.556118 66.4859 0.553531 50.4237 0.522487 34.3642C0.5199 33.3362 0.869147 32.7381 1.68664 32.1425C16.1119 21.6295 30.5267 11.0983 44.9028 0.518004C45.9867 -0.279535 46.6309 -0.0879186 47.601 0.629349C54.2264 5.53628 60.9164 10.3552 67.5314 15.2751C68.6076 16.0752 69.2984 16.1244 70.3978 15.3061C77.0103 10.3837 83.7055 5.57254 90.3205 0.647474C91.4122 -0.165601 92.0977 -0.17078 93.1998 0.639706C107.457 11.1268 121.745 21.5725 136.062 31.9819C137.099 32.7381 137.466 33.5071 137.464 34.7682C137.422 50.6024 137.412 66.4341 137.477 82.2683C137.484 83.866 137.083 84.2725 135.492 84.2544C127.545 84.1664 119.595 84.1767 111.648 84.2492C110.142 84.2622 109.501 84.0084 109.607 82.3201C109.764 79.8291 109.741 77.3174 109.612 74.8238C109.534 73.3297 109.971 72.8791 111.477 72.9102C115.79 73.006 120.107 72.8869 124.42 72.9749C125.814 73.0034 126.2 72.6202 126.192 71.2089C126.13 60.9057 126.143 50.6024 126.184 40.2991C126.189 39.1935 125.843 38.4866 124.961 37.8444C114.256 30.058 103.571 22.2458 92.8842 14.4361C92.2737 13.9881 91.8028 13.5427 90.9491 14.1849C86.9108 17.2197 82.8155 20.182 78.5702 23.2919C82.6293 26.2568 86.4917 29.131 90.4214 31.912C91.5208 32.6889 91.9399 33.5201 91.9348 34.8899C91.883 50.6464 91.8701 66.4056 91.9451 82.1622C91.9529 83.8997 91.4924 84.2596 89.8212 84.2518C75.8927 84.1793 61.9642 84.1845 48.0357 84.2466C46.4886 84.2544 46.0152 83.9204 46.0204 82.289C46.0876 66.4548 46.0773 50.6231 46.0307 34.7889C46.0281 33.5175 46.4033 32.7303 47.4381 31.9975C51.3884 29.2035 55.2715 26.3137 59.4004 23.2945ZM80.614 55.9444C80.614 50.7992 80.57 45.654 80.645 40.5115C80.6631 39.2349 80.2596 38.4581 79.2196 37.7356C76.1824 35.6227 73.1944 33.432 70.2556 31.1844C69.3191 30.4697 68.6878 30.4387 67.7332 31.1689C64.7349 33.4631 61.6667 35.6693 58.5855 37.8521C57.7008 38.4788 57.3412 39.1546 57.3463 40.2681C57.3929 50.5558 57.4084 60.8461 57.336 71.1339C57.3256 72.6668 57.8042 72.9905 59.2374 72.9749C65.7386 72.9024 72.2398 72.8765 78.741 72.9879C80.4484 73.0164 80.6761 72.4027 80.6502 70.9215C80.5597 65.9317 80.614 60.9368 80.614 55.9444Z" fill="white"/>
</svg>
